<svg width="12" height="8" viewBox="0 0 12 8" fill="none" xmlns="http://www.w3.org/2000/svg">
<path d="M0.875312 7.8C1.35873 7.8 1.75062 7.45078 1.75062 7.02C1.75062 6.58922 1.35873 6.24 0.875312 6.24C0.39189 6.24 0 6.58922 0 7.02C0 7.45078 0.39189 7.8 0.875312 7.8ZM3.50125 1.3H11.0873C11.3207 1.3 11.4958 1.196 11.6125 1.04C11.7292 0.884 11.7292 0.676 11.6125 0.52C11.4958 0.364 11.3207 0.26 11.0873 0.26H3.50125C3.26783 0.26 3.09277 0.364 2.97606 0.52C2.85935 0.676 2.85935 0.884 2.97606 1.04C3.09277 1.196 3.26783 1.3 3.50125 1.3ZM0.875312 4.68C1.35873 4.68 1.75062 4.33078 1.75062 3.9C1.75062 3.46922 1.35873 3.12 0.875312 3.12C0.39189 3.12 0 3.46922 0 3.9C0 4.33078 0.39189 4.68 0.875312 4.68ZM11.0873 6.5H3.50125C3.26783 6.5 3.09277 6.604 2.97606 6.76C2.85935 6.916 2.85935 7.124 2.97606 7.28C3.09277 7.436 3.26783 7.54 3.50125 7.54H11.0873C11.3207 7.54 11.4958 7.436 11.6125 7.28C11.7292 7.124 11.7292 6.916 11.6125 6.76C11.4958 6.604 11.3207 6.5 11.0873 6.5ZM0.875312 1.56C1.35873 1.56 1.75062 1.21078 1.75062 0.78C1.75062 0.349218 1.35873 0 0.875312 0C0.39189 0 0 0.349218 0 0.78C0 1.21078 0.39189 1.56 0.875312 1.56ZM11.0873 3.38H3.50125C3.26783 3.38 3.09277 3.484 2.97606 3.64C2.85935 3.796 2.85935 4.004 2.97606 4.16C3.09277 4.316 3.26783 4.42 3.50125 4.42H11.0873C11.3207 4.42 11.4958 4.316 11.6125 4.16C11.7292 4.004 11.7292 3.796 11.6125 3.64C11.4958 3.484 11.3207 3.38 11.0873 3.38Z" fill="#008146"/>
</svg>
