<svg width="24" height="24" viewBox="0 0 24 24" fill="none" xmlns="http://www.w3.org/2000/svg">
<path d="M9.52075 2.00684C9.19162 1.98289 8.85438 2.01653 8.52368 2.11426L7.34009 2.46485C6.07886 2.83785 5.09341 3.83854 4.76001 5.10156C4.01972 7.91044 4.86658 11.2351 7.07056 14.9775C9.27143 18.7148 11.7793 21.09 14.6116 21.8652C15.8871 22.2143 17.2626 21.8809 18.2288 20.9834L19.1291 20.1484C20.1367 19.213 20.2869 17.6549 19.4729 16.5479L18.1721 14.7813C17.4748 13.8342 16.2457 13.431 15.1155 13.7705L13.0803 14.3799C12.9949 14.4048 12.7905 14.2885 12.6125 14.1348L12.6116 14.1338C12.2947 13.8583 11.8557 13.3014 11.386 12.5049V12.5039C10.8824 11.6485 10.6675 11.0891 10.5813 10.7588C10.495 10.4283 10.516 10.3881 10.5286 10.2764C10.5351 10.2206 10.5616 10.169 10.6067 10.1279L10.6077 10.127L12.1252 8.73926C12.9947 7.94443 13.2572 6.67426 12.7668 5.60547L11.8518 3.60938V3.6084C11.421 2.66935 10.5079 2.07865 9.52075 2.00684ZM9.41235 3.50293C9.87145 3.53723 10.2942 3.81261 10.4875 4.23438L11.4036 6.23047C11.6252 6.71368 11.5141 7.26664 11.1135 7.63281L9.59595 9.01953C9.28484 9.30319 9.08589 9.68994 9.03833 10.1074V10.1084C9.02594 10.2182 8.99666 10.6265 9.13013 11.1377C9.26359 11.6489 9.53915 12.3252 10.093 13.2656H10.094C10.6108 14.1421 11.0992 14.808 11.6282 15.2676H11.6291C11.8009 15.4163 12.5209 16.1063 13.5002 15.8203L13.5032 15.8193L15.5471 15.207C16.0779 15.0476 16.6454 15.238 16.9641 15.6709L18.2649 17.4375C18.6332 17.9393 18.5689 18.6215 18.1086 19.0488L17.2083 19.8848C16.6324 20.4199 15.7773 20.6288 15.0071 20.418C12.7174 19.7912 10.4516 17.7626 8.36352 14.2168C6.2725 10.6662 5.61849 7.7295 6.2102 5.48438C6.4058 4.7434 7.00509 4.12832 7.76587 3.90332L8.94849 3.55274C9.10254 3.50721 9.25932 3.4915 9.41235 3.50293Z" fill="white"/>
</svg>
