<svg width="20" height="20" viewBox="0 0 20 20" fill="none" xmlns="http://www.w3.org/2000/svg">
<g clip-path="url(#clip0_318_23935)">
<path d="M16.3791 9.79886L12.6027 8.30955C12.1864 8.14556 11.8571 7.81586 11.6927 7.3996L10.2032 3.6237C9.66547 2.26053 7.73616 2.26053 7.19848 3.6237L5.70897 7.3996C5.54497 7.81586 5.21523 8.14513 4.79891 8.30955L1.02251 9.79886C-0.340837 10.3365 -0.340837 12.2655 1.02251 12.8031L4.79891 14.2925C5.21523 14.4564 5.54453 14.7861 5.70897 15.2024L7.19848 18.9783C7.73616 20.3415 9.66547 20.3415 10.2032 18.9783L11.6927 15.2024C11.8567 14.7861 12.1864 14.4569 12.6027 14.2925L16.3791 12.8031C17.7425 12.2655 17.7425 10.3365 16.3791 9.79886Z" fill="white"/>
<path d="M17.1733 5.65451C18.735 5.65451 20.001 4.3887 20.001 2.82725C20.001 1.26581 18.735 0 17.1733 0C15.6117 0 14.3457 1.26581 14.3457 2.82725C14.3457 4.3887 15.6117 5.65451 17.1733 5.65451Z" fill="#00D639"/>
</g>
<defs>
<clipPath id="clip0_318_23935">
<rect width="20" height="20" fill="white"/>
</clipPath>
</defs>
</svg>
